<?xml version="1.0" encoding="utf-8"?>
<!-- Svg Vector Icons : http://www.onlinewebfonts.com/icon -->
<!DOCTYPE svg PUBLIC "-//W3C//DTD SVG 1.1//EN" "http://www.w3.org/Graphics/SVG/1.1/DTD/svg11.dtd">
<svg version="1.1" xmlns="http://www.w3.org/2000/svg" xmlns:xlink="http://www.w3.org/1999/xlink" x="0px" y="0px" viewBox="0 0 1000 1000" enable-background="new 0 0 1000 1000" xml:space="preserve">
<metadata> Svg Vector Icons : http://www.onlinewebfonts.com/icon </metadata>
<g><g transform="translate(0.000000,512.000000) scale(0.100000,-0.100000)"><path d="M4540.6,5009.8c-953.3-92.1-1899-481.5-2639.4-1083.8c-218.7-176.5-563.9-525.6-736.6-742.3c-439.3-550.5-799.9-1294.8-949.5-1962.3C121.1,803.2,100,597.9,100,118.4c0-479.5,21.1-684.8,115.1-1102.9c151.5-681,521.7-1436.7,976.4-1994.9c176.5-218.7,525.6-564,742.3-736.6c550.5-439.2,1294.8-799.9,1962.3-949.5c418.2-94,623.4-115.1,1103-115.1s684.8,21.1,1103,115.1c500.6,111.3,1156.6,391.3,1588.2,677.1c746.2,496.8,1319.7,1149,1713,1948.9c239.8,489.1,376,928.4,462.3,1486.6c46,308.8,46,1033.9,0,1342.7c-86.3,558.2-222.5,997.5-462.3,1486.6c-257.1,521.7-542.9,920.7-955.3,1327.4c-404.7,400.9-774.9,663.7-1290.9,916.9c-483.4,237.9-932.2,377.9-1467.4,460.4C5447.9,5017.4,4791.9,5032.8,4540.6,5009.8z M4807.2,3542.4V2477.8h-74.8c-151.5,0-794.1,59.5-1041.6,95.9c-356.8,51.8-456.5,74.8-456.5,105.5c0,49.9,168.8,466.1,278.1,684.8c308.8,613.8,711.6,1049.2,1108.7,1196.9C4828.3,4637.6,4807.2,4754.7,4807.2,3542.4z M5371.2,4560.9c400.9-143.9,803.7-577.4,1114.5-1196.9c109.3-218.7,278.1-634.9,278.1-684.8c0-57.5-657.9-151.5-1356.2-193.7l-216.7-13.4v1068.4c0,920.7,3.8,1066.5,28.8,1066.5C5235,4606.9,5302.1,4585.8,5371.2,4560.9z M3641,4286.6c-84.4-103.6-197.6-255.1-251.3-339.5c-136.2-211-351-646.4-460.4-941.8c-109.3-291.6-67.1-274.3-423.9-159.2c-345.3,111.3-805.6,308.8-805.6,345.3c0,24.9,278.1,289.6,450.8,429.7c308.8,249.4,677.1,477.6,1007.1,623.4c138.1,59.5,587,224.4,619.6,226.3C3786.7,4472.7,3725.4,4388.3,3641,4286.6z M6441.5,4397.9c625.3-216.8,1124.1-512.2,1611.3-953.3c92.1-84.4,186.1-176.5,209.1-207.2c42.2-53.7,42.2-55.6,5.8-74.8c-165-95.9-688.6-301.2-962.9-376l-140-38.4l-15.4,42.2c-9.6,23-47.9,128.5-86.3,234c-92.1,247.4-326.1,725.1-452.7,920.7c-55.6,84.4-168.8,237.9-253.2,341.4c-84.4,101.7-147.7,186.1-143.9,186.1C6219,4472.7,6320.7,4438.2,6441.5,4397.9z M1891.6,2654.2c212.9-90.2,579.3-218.7,725.1-253.2c65.2-15.3,99.7-32.6,99.7-51.8c0-15.3-17.3-94-36.4-174.5c-99.8-391.3-180.3-949.5-214.8-1494.3l-24.9-370.2h-974.4H491.3v72.9c0,40.3,11.5,172.6,26.9,293.5c95.9,774.9,402.8,1534.5,867,2152.2l36.4,48l143.9-72.9C1644.1,2763.6,1791.8,2696.4,1891.6,2654.2z M8772.1,2602.4c276.2-410.5,516-974.4,629.2-1478.9c51.8-230.2,105.5-608.1,105.5-740.4v-72.9h-974.5h-974.4l-25,370.2c-34.5,544.8-115.1,1103-214.8,1494.3c-19.2,80.6-36.5,159.2-36.5,174.5c0,19.2,34.5,36.5,101.6,51.8c186.1,44.1,692.5,234,943.8,352.9l249.4,118.9l59.5-76.7C8668.5,2752.1,8729.9,2665.7,8772.1,2602.4z M3272.7,2245.7c285.8-65.2,1056.9-151.5,1367.7-151.5h166.9v-892v-892h-982.1h-980.2l11.5,306.9c19.2,464.2,99.7,1037.7,207.2,1482.7C3109.6,2285.9,3105.8,2284,3272.7,2245.7z M6934.5,2099.9c107.4-445,188-1018.5,207.1-1482.7l11.5-306.9H6173h-982.1v892v892h168.8c305,0,1110.6,90.2,1365.8,151.5C6886.5,2285.9,6890.4,2284,6934.5,2099.9z M2465.1-441.7c34.5-546.7,115.1-1104.9,214.8-1496.2c19.2-80.5,36.4-159.2,36.4-174.6c0-19.2-34.5-36.4-99.7-51.8c-235.9-55.6-771.1-260.9-1060.8-406.7l-134.3-69l-36.4,48C921-1974.3,614.1-1214.7,518.2-439.8c-15.3,120.8-26.9,253.2-26.9,293.5v72.9h974.4h974.4L2465.1-441.7z M4807.2-965.4v-892h-166.9c-310.7,0-1081.8-86.3-1367.7-151.5c-166.9-38.4-163-40.3-209.1,147.7c-107.4,443.1-188,1016.6-207.2,1480.8l-11.5,306.9h980.2h982.1V-965.4z M7141.6-380.3c-19.2-464.2-99.7-1037.7-207.1-1480.8c-46-188-42.2-186.1-209.1-147.7c-285.8,65.2-1056.9,151.5-1365.8,151.5h-168.8v892v892H6173h980.2L7141.6-380.3z M9506.8-146.3c0-40.3-11.5-172.6-26.9-293.5c-95.9-775-402.8-1534.6-867-2152.2l-36.5-48l-143.9,72.9c-303.1,151.5-803.7,343.4-1049.3,402.8c-67.1,15.3-101.6,32.6-101.6,51.8c0,15.3,17.3,94,36.5,174.6c99.7,391.3,180.3,949.5,214.8,1496.2l25,368.3h974.4h974.5V-146.3z M4807.2-3305.6c0-918.8-3.8-1064.6-28.8-1064.6c-15.3,0-82.5,21.1-151.5,46c-400.9,143.9-803.7,577.4-1114.5,1196.9c-109.3,218.7-278.1,634.9-278.1,684.8c0,15.3,38.4,34.5,101.7,46c199.5,42.2,604.2,95.9,847.8,117c138.1,9.6,283.9,23,326.1,24.9c42.2,3.8,126.6,7.7,188,9.6l109.3,3.8V-3305.6z M5697.3-2269.7c581.2-47.9,1066.5-126.6,1066.5-172.6c0-49.9-168.8-466.1-278.1-684.8c-249.4-494.9-560.1-876.6-888.1-1087.6c-99.7-63.3-322.2-155.4-377.9-155.4c-25,0-28.8,145.8-28.8,1064.6V-2241h74.8C5307.9-2241,5501.6-2254.4,5697.3-2269.7z M2917.8-2739.7c92.1-259,341.4-771.1,470-968.7c55.6-84.4,168.8-237.9,253.2-339.5c84.4-103.6,147.7-188,143.9-188c-5.8,0-107.4,34.5-228.3,74.8c-625.3,216.7-1124.1,512.1-1611.3,953.3c-92.1,84.4-186.1,176.5-209.1,207.2c-42.2,53.7-42.2,55.6-5.8,76.7c228.3,132.3,1068.4,435.4,1102.9,397.1C2839.2-2532.5,2877.5-2628.4,2917.8-2739.7z M7617.4-2649.5c305-105.5,681-274.3,681-305c0-24.9-278.1-291.6-450.8-429.7c-433.5-351-870.9-590.8-1406-776.9c-120.8-40.3-222.5-74.8-228.3-74.8c-3.8,0,59.5,84.4,143.9,188c84.4,101.7,197.6,255.1,253.2,339.5c126.6,195.7,360.6,673.3,452.7,920.7c38.4,105.5,76.7,211,86.3,234l15.4,42.2l130.4-36.5C7366.1-2569,7511.9-2615,7617.4-2649.5z"/></g></g>
</svg>